<?xml version="1.0" encoding="utf-8"?>
<!-- Generator: Adobe Illustrator 24.1.0, SVG Export Plug-In . SVG Version: 6.00 Build 0)  -->
<svg version="1.1" id="Capa_1" xmlns="http://www.w3.org/2000/svg" xmlns:xlink="http://www.w3.org/1999/xlink" x="0px" y="0px"
	 viewBox="0 0 1441 2547.8" style="enable-background:new 0 0 1441 2547.8;" xml:space="preserve">
<style type="text/css">
	.st0{fill:url(#SVGID_1_);}
	.st1{fill:url(#SVGID_2_);}
	.st2{fill:url(#SVGID_3_);}
</style>
<linearGradient id="SVGID_1_" gradientUnits="userSpaceOnUse" x1="-791.8856" y1="3194.4766" x2="1858.5062" y2="3194.4766" gradientTransform="matrix(1 0 0 -1 0 4252)">
	<stop  offset="0" style="stop-color:#00BDB7"/>
	<stop  offset="1" style="stop-color:#008CD3"/>
</linearGradient>
<path class="st0" d="M-791.9-331.3v2694.8c0,0,315.4,186.6,586.4,0s-33.1-1190.7,605-1486s1458.9-126.8,1458.9-126.8V-320.3
	L-791.9-331.3z"/>
<linearGradient id="SVGID_2_" gradientUnits="userSpaceOnUse" x1="-533.4543" y1="2174.437" x2="1917.8" y2="2174.437" gradientTransform="matrix(1 0 0 -1 0 4252)">
	<stop  offset="0" style="stop-color:#00BDB7"/>
	<stop  offset="1" style="stop-color:#008CD3"/>
</linearGradient>
<path class="st1" d="M1917.8,1004.6v2077c0,0-2523.6,178.9-2449.7-40.2s1976.1-214.6,2131.4-570.1
	C1754.9,2115.9,1917.8,1004.6,1917.8,1004.6z"/>
<linearGradient id="SVGID_3_" gradientUnits="userSpaceOnUse" x1="-807.88" y1="3544.4233" x2="1134.7582" y2="3544.4233" gradientTransform="matrix(1 0 0 -1 0 4252)">
	<stop  offset="0" style="stop-color:#00BDB7"/>
	<stop  offset="1" style="stop-color:#008CD3"/>
</linearGradient>
<polygon class="st2" points="-807.9,-334.1 -807.9,1749.2 341.5,-178 1132,608.4 1134.8,610.7 1134.8,-334.1 "/>
</svg>
