<svg xmlns="http://www.w3.org/2000/svg" xmlns:xlink="http://www.w3.org/1999/xlink" viewBox="0 0 20.86 20.36"><defs><style>.cls-1{isolation:isolate;}.cls-2{fill:url(#linear-gradient);}.cls-3{fill:url(#linear-gradient-2);}.cls-4{fill:#fff;}.cls-5{fill:url(#radial-gradient);}.cls-6{fill:#e0e0e0;mix-blend-mode:multiply;}</style><linearGradient id="linear-gradient" x1="97.11" y1="111.09" x2="105.04" y2="92.01" gradientTransform="matrix(1.02, 0.05, -0.05, 0.98, 5.39, -1.27)" gradientUnits="userSpaceOnUse"><stop offset="0.17" stop-color="#a4b3bd"/><stop offset="0.73" stop-color="#eff1f3"/><stop offset="0.85" stop-color="#fff"/></linearGradient><linearGradient id="linear-gradient-2" x1="6.23" y1="19.18" x2="14.61" y2="1.21" gradientUnits="userSpaceOnUse"><stop offset="0" stop-color="#fdfdfd"/><stop offset="0.3" stop-color="#f4f4f4"/><stop offset="0.79" stop-color="#ddd"/><stop offset="1" stop-color="#d0d0d0"/></linearGradient><radialGradient id="radial-gradient" cx="99.16" cy="103.65" r="20.65" gradientTransform="translate(53.76 55.89) scale(0.5 0.48)" gradientUnits="userSpaceOnUse"><stop offset="0" stop-color="#a0ba73"/><stop offset="0.2" stop-color="#99b56a"/><stop offset="0.58" stop-color="#92b05f"/><stop offset="1" stop-color="#8fae5b"/></radialGradient></defs><g class="cls-1"><g id="Capa_1" data-name="Capa 1"><ellipse class="cls-2" cx="103.43" cy="103.65" rx="10.43" ry="10.18" transform="translate(-94.88 -91.56) rotate(-1.05)"/><ellipse class="cls-3" cx="10.42" cy="10.2" rx="10.24" ry="9.84"/><path class="cls-4" d="M110.88,99.53a1.19,1.19,0,0,0-1.62-.19l-6.45,5.22-2.47-2.09a1.5,1.5,0,0,0-1.84-.06,1.16,1.16,0,0,0-.16,1.78l3.07,4.08,0,.06a1.79,1.79,0,0,0,2.45.19l6.88-7.7,0,0A.87.87,0,0,0,110.88,99.53Z" transform="translate(-93 -93.47)"/><path class="cls-5" d="M110.88,99.1a1.19,1.19,0,0,0-1.62-.19l-6.45,5.22L100.34,102A1.49,1.49,0,0,0,98.5,102a1.35,1.35,0,0,0-.25,2l3.16,3.91,0,.06a1.79,1.79,0,0,0,2.45.19l6.88-7.53,0,0A1.07,1.07,0,0,0,110.88,99.1Z" transform="translate(-93 -93.47)"/><path class="cls-6" d="M98.5,102.67a1.49,1.49,0,0,1,1.84.06l2,2.19a.46.46,0,0,0,.64,0l6.29-5.36a1.19,1.19,0,0,1,1.62.19,1.14,1.14,0,0,1,.19.34,1.08,1.08,0,0,0-.19-1,1.19,1.19,0,0,0-1.62-.19l-6.45,5.22L100.34,102A1.49,1.49,0,0,0,98.5,102a1.36,1.36,0,0,0-.51,1.45A1.38,1.38,0,0,1,98.5,102.67Z" transform="translate(-93 -93.47)"/></g></g></svg>